#!OML:ASF I:\Actors\actors\Patient Classification 2\Patient 1\Session 1\actor1.ASF
:FULLY-SPECIFIED
:DEGREES
100
root -1.18301 18.0661 5.69404 -3.1324 0.15086 -5.13683
lowerback 3.90211 1.98321 3.33264
upperback -0.0426715 2.80496 0.420407
thorax -2.09157 1.36662 -1.58898
lowerneck -13.5495 -3.9299 -2.44298
upperneck 16.541 -5.47819 3.2465
head 7.47731 -2.47196 0.890083
rclavicle -1.55922e-014 -5.56597e-015
rhumerus -46.0878 8.98901 -89.0776
rradius 58.4924
rwrist 20.265
rhand 10.422 -35.6278
rfingers 7.12502
rthumb 35.5265 -62.0593
lclavicle -1.55922e-014 -5.56597e-015
lhumerus -40.3108 6.37594 84.8069
lradius 39.9553
lwrist -6.17784
lhand -2.58361 -23.9079
lfingers 7.12502
lthumb 23.1135 4.7257
rfemur 13.184 13.5215 24.9627
rtibia -2.22639e-014
rfoot -28.299 -21.3735
rtoes 5.88307
lfemur 21.5477 -8.38008 -12.1089
ltibia -20.7089
lfoot -2.58399 18.7954
ltoes -7.85536
101
root -1.18931 18.0646 5.68738 -3.23055 0.49135 -5.13236
lowerback 4.01231 1.95862 3.25701
upperback 0.0425033 2.77068 0.398143
thorax -2.06982 1.35151 -1.57033
lowerneck -13.5457 -4.0182 -2.53399
upperneck 16.3444 -5.6173 3.48219
head 7.42647 -2.52436 0.967922
rclavicle -1.51573e-014 -1.43125e-014
rhumerus -45.0736 10.3016 -88.737
rradius 61.7498
rwrist 21.8819
rhand 5.99289 -33.6884
rfingers 7.12502
rthumb 31.3165 -61.029
lclavicle -1.51573e-014 -1.43125e-014
lhumerus -40.2063 6.11779 84.5287
lradius 40.4699
lwrist -5.80945
lhand -2.41472 -23.7929
lfingers 7.12502
lthumb 23.2756 4.82025
rfemur 13.3041 13.1686 24.974
rtibia 6.36111e-015
rfoot -28.3757 -21.2988
rtoes 5.91665
lfemur 21.5591 -8.2809 -12.0377
ltibia -20.7783
lfoot -2.33145 18.4282
ltoes -8.08554
102
root -1.18925 18.0664 5.67818 -3.24018 0.680201 -5.0951
lowerback 4.07838 1.99879 3.24232
upperback 0.112182 2.82356 0.354593
thorax -2.03097 1.37928 -1.61056
lowerneck -13.6384 -4.15983 -2.57247
upperneck 16.201 -5.81897 3.60425
head 7.40742 -2.61214 0.99125
rclavicle 1.21756e-015 4.37326e-015
rhumerus -43.9241 11.1885 -88.133
rradius 65.1376
rwrist 24.0231
rhand -1.31837 -31.683
rfingers 7.12502
rthumb 24.327 -60.1592
lclavicle 1.21756e-015 4.37326e-015
lhumerus -40.1476 5.68384 84.3199
lradius 41.1762
lwrist -5.16584
lhand -2.10354 -23.5429
lfingers 7.12502
lthumb 23.5741 5.03217
rfemur 13.2873 12.9884 24.9041
rtibia 2.8625e-014
rfoot -28.409 -21.2628
rtoes 5.94639
lfemur 21.495 -8.29965 -12.0694
ltibia -20.8189
lfoot -2.17789 18.322
ltoes -8.31843
103
root -1.18878 18.0677 5.67076 -3.24344 0.787456 -5.06609
lowerback 4.14252 2.06938 3.23221
upperback 0.171971 2.91774 0.328934
thorax -1.99975 1.42746 -1.63734
lowerneck -13.5982 -4.23481 -2.66086
upperneck 15.924 -5.93222 3.8183
head 7.32338 -2.65587 1.06546
rclavicle -2.3264e-014 -1.59028e-015
rhumerus -42.8219 11.5057 -87.392
rradius 68.9988
rwrist 27.2599
rhand -10.4384 -31.8699
rfingers 7.12502
rthumb 15.5614 -61.2638
lclavicle -2.3264e-014 -1.59028e-015
lhumerus -40.1489 5.17178 84.144
lradius 41.986
lwrist -4.42481
lhand -1.87995 -23.2992
lfingers 7.12502
lthumb 23.7885 5.24816
rfemur 13.2693 12.8893 24.8475
rtibia -1.90833e-014
rfoot -28.4252 -21.2193
rtoes 6.17122
lfemur 21.4247 -8.29305 -12.1008
ltibia -20.8009
lfoot -2.06336 18.271
ltoes -8.79213
104
root -1.18335 18.0716 5.6609 -3.1953 0.728584 -5.05626
lowerback 4.26065 2.20154 3.33276
upperback 0.172792 3.10236 0.288709
thorax -2.04815 1.51756 -1.74954
lowerneck -13.154 -4.15582 -2.80982
upperneck 15.2948 -5.85878 4.28228
head 7.05827 -2.60241 1.25979
rclavicle -2.25838e-014 -7.95139e-015
rhumerus -40.6934 12.8922 -86.2226
rradius 71.2985
rwrist 30.5682
rhand -20.2866 -32.3376
rfingers 7.12502
rthumb 6.0631 -62.2308
lclavicle -2.25838e-014 -7.95139e-015
lhumerus -40.1514 4.67341 83.9289
lradius 42.7787
lwrist -3.7116
lhand -1.59703 -23.1415
lfingers 7.12502
lthumb 24.0598 5.37023
rfemur 13.1573 12.9671 24.7847
rtibia -3.18055e-015
rfoot -28.3673 -21.2576
rtoes 6.26451
lfemur 21.3451 -8.34757 -12.1531
ltibia -20.8057
lfoot -2.05373 18.4539
ltoes -8.65311
105
root -1.1659 18.0817 5.64377 -3.044 0.396087 -5.0888
lowerback 4.46444 2.42564 3.70573
upperback 0.0863111 3.42815 0.207826
thorax -2.20738 1.6717 -2.07007
lowerneck -12.7268 -4.13464 -2.92347
upperneck 14.8255 -5.8487 4.59375
head 6.84545 -2.58982 1.38997
rclavicle -5.69332e-015 -9.54166e-015
rhumerus -38.2395 13.2837 -84.6394
rradius 73.5404
rwrist 34.6322
rhand -27.3071 -33.9247
rfingers 7.12502
rthumb -0.716726 -63.9032
lclavicle -5.69332e-015 -9.54166e-015
lhumerus -40.1911 4.12889 83.7131
lradius 43.6382
lwrist -2.94499
lhand -1.28895 -22.8948
lfingers 7.12502
lthumb 24.3552 5.57762
rfemur 12.8429 13.343 24.696
rtibia 6.36111e-015
rfoot -28.2211 -21.4074
rtoes 6.04247
lfemur 21.2034 -8.54726 -12.2532
ltibia -20.8265
lfoot -2.14979 19.0068
ltoes -8.2294
106
root -1.18401 18.0777 5.65471 -3.08634 1.10377 -5.1841
lowerback 4.29344 2.31801 3.51848
upperback 0.126328 3.26882 0.279313
thorax -2.09465 1.59731 -1.87426
lowerneck -12.6635 -4.28069 -2.99426
upperneck 14.8997 -6.03189 4.55292
head 6.86646 -2.68537 1.37054
rclavicle 1.21662e-014 3.18055e-015
rhumerus -35.3442 13.2042 -82.9548
rradius 75.4646
rwrist 37.6718
rhand -31.9726 -35.7167
rfingers 7.12502
rthumb -5.2223 -65.6323
lclavicle 1.21662e-014 3.18055e-015
lhumerus -40.2797 3.65719 83.4497
lradius 44.5431
lwrist -2.18272
lhand -1.1148 -22.5944
lfingers 7.12502
lthumb 24.5222 5.8555
rfemur 13.0357 12.5951 24.8624
rtibia -2.22639e-014
rfoot -28.4531 -21.1308
rtoes 6.46527
lfemur 21.0965 -8.36088 -11.9407
ltibia -20.8586
lfoot -1.77519 18.16
ltoes -8.92042
107
root -1.19041 18.0778 5.65809 -3.02664 1.43038 -5.21058
lowerback 4.19222 2.30345 3.43263
upperback 0.0932002 3.24271 0.315219
thorax -2.08034 1.58521 -1.78436
lowerneck -12.764 -4.45266 -3.08478
upperneck 15.1849 -6.23337 4.40132
head 6.98166 -2.795 1.31214
rclavicle 3.17745e-014 1.59028e-014
rhumerus -32.0018 13.0837 -81.2552
rradius 76.7962
rwrist 39.439
rhand -35.2481 -36.501
rfingers 7.12502
rthumb -8.38424 -66.3146
lclavicle 3.17745e-014 1.59028e-014
lhumerus -40.4064 3.40594 83.0697
lradius 45.343
lwrist -1.52732
lhand -1.08357 -22.9829
lfingers 7.12502
lthumb 24.5521 5.4629
rfemur 13.0301 12.2619 24.8898
rtibia -3.18055e-014
rfoot -28.5307 -20.9834
rtoes 6.70503
lfemur 20.9505 -8.31608 -11.8195
ltibia -20.8823
lfoot -1.62605 17.8457
ltoes -9.02938
108
root -1.1935 18.0783 5.65645 -3.00285 1.35502 -5.19826
lowerback 4.23767 2.42438 3.37237
upperback 0.0471619 3.40434 0.334402
thorax -2.14902 1.66468 -1.74326
lowerneck -12.5485 -4.45979 -3.18091
upperneck 15.1351 -6.2285 4.41319
head 6.9313 -2.80115 1.33674
rclavicle 4.65715e-014 1.43125e-014
rhumerus -28.4086 13.1389 -79.6944
rradius 77.5165
rwrist 39.8077
rhand -37.1229 -36.9188
rfingers 7.12502
rthumb -10.1932 -66.6518
lclavicle 4.65715e-014 1.43125e-014
lhumerus -40.6118 2.96482 82.8004
lradius 46.5602
lwrist -0.577483
lhand -0.916037 -22.1143
lfingers 7.12502
lthumb 24.7127 6.30958
rfemur 13.0084 12.3379 24.8831
rtibia 4.77083e-015
rfoot -28.5597 -20.9291
rtoes 6.92366
lfemur 20.9585 -8.22925 -11.8147
ltibia -20.929
lfoot -1.58601 17.8281
ltoes -9.15125
